<?xml version="1.0" encoding="UTF-8"?>
<svg id="Layer_1" data-name="Layer 1" xmlns="http://www.w3.org/2000/svg" viewBox="0 0 1220 560">
  <defs>
    <style>
      .cls-1 {
        fill: #005faa;
      }
    </style>
  </defs>
  <path class="cls-1" d="M435.26,347.39h-2.22c-27.86-.01-55.74-.04-83.57-.05h-3.79c.22-1.15.45-2.28.67-3.41,20.32-104.48,53.07-228.17,90.83-332.5.25-.66.48-1.32.72-1.97h2.21c73.74-.03,147.54-.05,221.32-.03h3.75c-.29,1.11-.6,2.22-.9,3.34-5.29,19.85-10.8,40.48-16.44,61.61-.18.7-.36,1.41-.57,2.12h-2.26c-46.62-.01-93.27,0-139.79.07-6.83,22.72-13.55,46-20.07,69.42,42.49-.02,85.17-.05,127.85-.05h3.89c-.34,1.25-.67,2.47-1.01,3.7-5.86,21.9-11.73,43.91-17.54,65.76-.19.74-.36,1.47-.56,2.19h-2.32c-43.18,0-86.33-.04-129.28-.08-11.41,44.16-21.74,87.54-30.49,127.89-.14.66-.28,1.32-.42,1.99"/>
  <path class="cls-1" d="M330.38,347.31h-3.08c-28.22-.02-56.42-.05-84.6-.08h-2.73c-.14-.88-.26-1.75-.39-2.62-2.93-20.38-5.47-41.26-7.61-62.45-33.14-.16-66.04-.36-98.62-.57-11.18,21.54-22.15,42.87-33.22,64.07-.25.47-.49.94-.74,1.42h-1.65c-27.6-.04-55.15-.08-82.7-.13h-5.04c.86-1.44,1.72-2.86,2.57-4.3C76.33,234.42,133.4,119.17,211.93,10.97c.32-.45.64-.88.95-1.33h1.62c30.07-.03,60.16-.06,90.25-.08h2.7c-.03.84-.06,1.69-.1,2.53-3.04,105.2,4.71,227.07,22.52,332.34.17.95.33,1.91.51,2.87M168.74,213.45c19.49.07,39.11.1,58.87.16-1.89-32.99-2.87-66.23-2.95-99-19.68,32.88-38.27,66.06-55.92,98.84"/>
  <path class="cls-1" d="M872.98,347.34h-3.09c-28.21.01-56.44.03-84.69.05h-2.75c.02-.86.06-1.71.08-2.55.53-19.98.77-40.7.74-61.88-33.94.08-67.96.12-102.06.16-13.09,21.63-26.14,42.73-38.93,62.98-.28.44-.56.88-.85,1.32h-1.66c-27.77,0-55.54,0-83.3,0h-5.08c.84-1.33,1.7-2.69,2.53-4.02,64.92-103.79,140.51-229.26,200.71-332.66.23-.43.49-.88.74-1.31h1.64c30.1.02,60.21.04,90.32.05h2.66c.13.84.28,1.69.4,2.52,16.86,104.7,24.89,227.73,22.66,332.45-.02.95-.06,1.92-.06,2.88M721.88,214.07c20.52,0,41-.03,61.4-.05-.8-33.33-2.24-67.02-4.28-100.08-18.33,33.01-37.57,66.74-57.12,100.14"/>
  <path class="cls-1" d="M1210,28.08c-6.45,24.91-12.56,49.76-18.62,74.68-2.25-.01-4.5-.03-6.75-.04-9.59-10.01-21.77-18.93-37.19-25.73-34.68-15.29-66.98-15.64-90.4-4.03-17.45,8.65-31.37,28.36-18.87,45.88,10.74,15.06,76.03,20.31,107.17,41.42,33.06,22.41,28.92,57.12,23.28,81.18-9.88,32.62-29.8,59.61-61.84,79.39-31.99,21.06-71.52,30.5-115.61,30.5-57.46,0-96.32-17.42-110.07-24.24,9.31-25.48,18.12-51.86,26.33-78.6,2.44,0,4.86,0,7.28-.03,12.22,14.22,26.64,25.79,43.92,32.47,29.26,11.32,104.28,24.57,122.02-24.78,5.5-15.29-4.65-26.52-20.79-31.97-34.32-11.59-94.59-16.22-111.05-56.64-6.6-16.2-7.5-34.82-2.79-59.1,7.31-31.39,23.36-54.2,55-74.32,66.05-42,142.33-27.26,160.94-23.06,18.54,4.2,35.54,9.91,48.04,17.03"/>
  <path class="cls-1" d="M122.07,502.62l-1.4,5.23c-7.6,28.34-.6,47.03,42.67,47.03,32.38,0,59.97-15.4,68.3-46.48,5.97-22.28.28-34.38-21.87-42.36l-21.11-7.7c-11.74-4.12-14.03-10.17-12.1-17.32,2.8-10.46,12.65-15.95,22.42-15.95,12.57,0,15.04,7.42,11.06,22.28h34.62l1.62-6.06c7.16-26.68-5.19-42.08-40.08-42.08-39.65,0-60.66,20.07-67.22,44.55-5.61,20.9,1.81,33.83,21.03,41.26l24.5,9.62c6.8,2.75,12.04,7.15,9.46,16.77-3.17,11.82-12.54,17.61-24.27,17.61-13.12,0-17.81-8.53-14.34-21.45l1.32-4.96h-34.62ZM254.28,477.04c-13.79,51.44-8.25,78.66,38.32,77.84,44.1,0,66.49-27.23,80.06-77.84,13.8-51.42,8.25-78.64-38.31-77.82-44.12,0-66.49,27.22-80.06,77.82M292.81,477.04c8.11-30.25,15.62-51.97,34.6-51.97,15.63,0,16.6,15.13,6.72,51.97-9.88,36.86-18.96,51.99-34.6,51.99-18.99,0-14.83-21.73-6.72-51.99M376.5,551.02h38.53l32.75-122.11h22.33l6.93-25.85h-22.33l2.16-7c2.28-8.52,7.09-11.82,17.96-11.82,2.52,0,5.03,0,7.47.28l7.23-26.96c-6.84-.55-13.46-.82-20.44-.82-24.85,0-42.56,8.8-49.72,35.48l-3.19,10.85h-19.55l-6.93,25.85h19.54l-32.75,122.11ZM504.17,403.07h-19.55l-6.94,25.85h19.55l-22.72,84.71c-8.04,29.98-4.88,39.05,25.27,39.05,8.93,0,16.97-.83,25.56-1.65l7.08-26.4c-2.59.28-5.74.55-8.8.55-11.17,0-12.42-4.68-9.33-16.23l21.46-80.03h22.34l6.93-25.85h-22.33l8.77-31.39h-38.53l-8.77,31.39ZM560.52,551.02h44.67l46.88-105.05h.56l-8.35,105.05h43.83l72.06-147.96h-36.85l-46.33,105.05h-.56l8.36-105.05h-41.88l-46.88,105.05h-.56l10.59-105.05h-38.53l-7.02,147.96ZM797.15,448.45l1.1-4.13c3.1-11.56,11.31-19.25,23.04-19.25,12.83,0,16.02,6.87,12.99,18.16-2.65,9.89-7.74,14.29-20,17.32l-23.32,5.77c-28.44,7.15-42.91,18.43-50.36,46.2-5.31,19.81-1.87,42.36,24.93,42.36,18.42,0,30.35-3.85,43.41-19.25h.56c-.2,4.95-.64,10.73.62,15.4h36.85c-1.62-8.52-.76-14.84,2.93-28.6l20.87-77.83c7.16-26.68,3.52-45.38-42.27-45.38-29.04,0-55.87,11.54-65.01,45.65l-.96,3.57h34.62ZM817.4,506.19c-4.35,16.23-19.53,22.84-29.86,22.84s-12.01-9.35-8.98-20.63c3.54-13.2,11.67-20.62,28.2-23.92,5.04-1.1,12.12-3.59,18.45-7.44l-7.81,29.15ZM869.58,551.02h38.53l23.83-88.83c5.31-19.8,22.23-26.68,35.63-26.68,3.91,0,8.03.27,11.86.55l9.74-36.29c-2.15-.27-4.6-.55-6.83-.55-15.91,0-29.31,9.35-40.96,23.65h-.56l5.31-19.8h-36.86l-39.68,147.96ZM1090,482.83l2.3-8.54c12.17-45.37,10.08-75.07-34.87-75.07-51.93,0-69.63,36.84-80.26,76.45-9.88,36.86-19.01,79.21,36.84,79.21,36.29,0,58.21-19.25,68.82-53.63h-34.62c-7.1,18.15-14.99,27.78-27.83,27.78-14.24,0-14.42-17.06-9.77-34.38l3.17-11.82h76.22ZM1019.83,460.27l1.55-5.77c3.69-13.75,12.36-29.43,27.71-29.43s15.32,12.65,10.11,35.2h-39.37Z"/>
</svg>